
<svg width="128" height="128" viewBox="0 0 128 128" fill="none" xmlns="http://www.w3.org/2000/svg">
<rect width="128" height="128" rx="50" fill="#FF639B" fill-opacity="0.42"/>
<path d="M38.0682 99V29.1818H65.6136C70.8864 29.1818 75.3864 30.125 79.1136 32.0114C82.8636 33.875 85.7159 36.5227 87.6705 39.9545C89.6477 43.3636 90.6364 47.375 90.6364 51.9886C90.6364 56.625 89.6364 60.6136 87.6364 63.9545C85.6364 67.2727 82.7386 69.8182 78.9432 71.5909C75.1705 73.3636 70.6023 74.25 65.2386 74.25H46.7955V62.3864H62.8523C65.6705 62.3864 68.0114 62 69.875 61.2273C71.7386 60.4545 73.125 59.2955 74.0341 57.75C74.9659 56.2045 75.4318 54.2841 75.4318 51.9886C75.4318 49.6705 74.9659 47.7159 74.0341 46.125C73.125 44.5341 71.7273 43.3295 69.8409 42.5114C67.9773 41.6705 65.625 41.25 62.7841 41.25H52.8295V99H38.0682ZM75.7727 67.2273L93.125 99H76.8295L59.8523 67.2273H75.7727Z" fill="white" fill-opacity="0.69"/>
</svg>
